<mxfile host="Electron" agent="Mozilla/5.0 (Windows NT 10.0; Win64; x64) AppleWebKit/537.36 (KHTML, like Gecko) draw.io/27.0.9 Chrome/134.0.6998.205 Electron/35.4.0 Safari/537.36" version="27.0.9">
  <diagram name="第 1 页" id="zJQgIYTKPK184uiMVoDt">
    <mxGraphModel dx="3631" dy="1813" grid="1" gridSize="10" guides="1" tooltips="1" connect="1" arrows="1" fold="1" page="0" pageScale="1" pageWidth="827" pageHeight="1169" math="0" shadow="0">
      <root>
        <mxCell id="0" />
        <mxCell id="1" parent="0" />
        <mxCell id="d76g4JhjwJhJm4ZZSWvx-201" value="" style="rounded=1;whiteSpace=wrap;html=1;dashed=1;fillColor=none;" vertex="1" parent="1">
          <mxGeometry x="-305" y="-30" width="875" height="980" as="geometry" />
        </mxCell>
        <mxCell id="d76g4JhjwJhJm4ZZSWvx-199" value="" style="rounded=1;whiteSpace=wrap;html=1;dashed=1;fillColor=none;" vertex="1" parent="1">
          <mxGeometry x="640" y="329" width="580" height="390" as="geometry" />
        </mxCell>
        <mxCell id="d76g4JhjwJhJm4ZZSWvx-2" value="&lt;font face=&quot;JetBrains Mono, monospace&quot;&gt;&lt;span&gt;&lt;b&gt;IDBRootLayer&lt;/b&gt;&lt;/span&gt;&lt;/font&gt;" style="text;whiteSpace=wrap;html=1;fontSize=15;" vertex="1" parent="1">
          <mxGeometry x="-280" y="10" width="120" height="30" as="geometry" />
        </mxCell>
        <mxCell id="d76g4JhjwJhJm4ZZSWvx-6" value="&lt;font face=&quot;JetBrains Mono, monospace&quot;&gt;&lt;span&gt;&lt;b&gt;IDBOpenDBRequest_onupgradeneeded_Layer&lt;/b&gt;&lt;/span&gt;&lt;/font&gt;" style="text;whiteSpace=wrap;html=1;fontSize=15;" vertex="1" parent="1">
          <mxGeometry x="-235" y="109" width="370" height="30" as="geometry" />
        </mxCell>
        <mxCell id="d76g4JhjwJhJm4ZZSWvx-8" value="&lt;font face=&quot;JetBrains Mono, monospace&quot;&gt;&lt;span&gt;&lt;b&gt;IDBDatabase_SchemaOps_Layer&lt;/b&gt;&lt;/span&gt;&lt;/font&gt;" style="text;whiteSpace=wrap;html=1;fontSize=15;" vertex="1" parent="1">
          <mxGeometry x="-180" y="209" width="120" height="30" as="geometry" />
        </mxCell>
        <mxCell id="d76g4JhjwJhJm4ZZSWvx-10" value="&lt;font face=&quot;JetBrains Mono, monospace&quot;&gt;&lt;span&gt;&lt;b&gt;IDBRequest_onsuccess_Layer&lt;/b&gt;&lt;/span&gt;&lt;/font&gt;" style="text;whiteSpace=wrap;html=1;fontSize=15;" vertex="1" parent="1">
          <mxGeometry x="-120" y="509" width="275" height="30" as="geometry" />
        </mxCell>
        <mxCell id="d76g4JhjwJhJm4ZZSWvx-12" value="" style="shape=table;startSize=0;container=1;collapsible=0;childLayout=tableLayout;fontSize=11;dashed=1;pointerEvents=1;opacity=50;strokeColor=inherit;align=left;verticalAlign=middle;fontFamily=Helvetica;fontColor=default;fontStyle=0;fillColor=none;" vertex="1" parent="1">
          <mxGeometry x="-280" y="40" width="380" height="60" as="geometry" />
        </mxCell>
        <mxCell id="d76g4JhjwJhJm4ZZSWvx-13" value="" style="shape=tableRow;horizontal=0;startSize=0;swimlaneHead=0;swimlaneBody=0;strokeColor=inherit;top=0;left=0;bottom=0;right=0;collapsible=0;dropTarget=0;fillColor=none;points=[[0,0.5],[1,0.5]];portConstraint=eastwest;fontSize=11;dashed=1;pointerEvents=1;opacity=50;align=left;verticalAlign=middle;fontFamily=Helvetica;fontColor=default;fontStyle=0;" vertex="1" parent="d76g4JhjwJhJm4ZZSWvx-12">
          <mxGeometry width="380" height="20" as="geometry" />
        </mxCell>
        <mxCell id="d76g4JhjwJhJm4ZZSWvx-14" value="&lt;span style=&quot;font-size: 12px;&quot;&gt;&amp;nbsp; let db;&lt;/span&gt;" style="shape=partialRectangle;html=1;whiteSpace=wrap;connectable=0;strokeColor=inherit;overflow=hidden;fillColor=none;top=0;left=0;bottom=0;right=0;pointerEvents=1;fontSize=11;align=left;dashed=1;opacity=50;verticalAlign=middle;fontFamily=Helvetica;fontColor=default;fontStyle=0;" vertex="1" parent="d76g4JhjwJhJm4ZZSWvx-13">
          <mxGeometry width="380" height="20" as="geometry">
            <mxRectangle width="380" height="20" as="alternateBounds" />
          </mxGeometry>
        </mxCell>
        <mxCell id="d76g4JhjwJhJm4ZZSWvx-17" value="" style="shape=tableRow;horizontal=0;startSize=0;swimlaneHead=0;swimlaneBody=0;strokeColor=inherit;top=0;left=0;bottom=0;right=0;collapsible=0;dropTarget=0;fillColor=none;points=[[0,0.5],[1,0.5]];portConstraint=eastwest;fontSize=11;dashed=1;pointerEvents=1;opacity=50;align=left;verticalAlign=middle;fontFamily=Helvetica;fontColor=default;fontStyle=0;" vertex="1" parent="d76g4JhjwJhJm4ZZSWvx-12">
          <mxGeometry y="20" width="380" height="20" as="geometry" />
        </mxCell>
        <mxCell id="d76g4JhjwJhJm4ZZSWvx-18" value="&lt;div style=&quot;font-size: 12px;&quot;&gt;&amp;nbsp; const openRequest = window.indexedDB.open(&#39;str_726&#39;, 74)&lt;/div&gt;" style="shape=partialRectangle;html=1;whiteSpace=wrap;connectable=0;strokeColor=inherit;overflow=hidden;fillColor=none;top=0;left=0;bottom=0;right=0;pointerEvents=1;fontSize=11;align=left;dashed=1;opacity=50;verticalAlign=middle;fontFamily=Helvetica;fontColor=default;fontStyle=0;" vertex="1" parent="d76g4JhjwJhJm4ZZSWvx-17">
          <mxGeometry width="380" height="20" as="geometry">
            <mxRectangle width="380" height="20" as="alternateBounds" />
          </mxGeometry>
        </mxCell>
        <mxCell id="d76g4JhjwJhJm4ZZSWvx-21" value="" style="shape=tableRow;horizontal=0;startSize=0;swimlaneHead=0;swimlaneBody=0;strokeColor=inherit;top=0;left=0;bottom=0;right=0;collapsible=0;dropTarget=0;fillColor=none;points=[[0,0.5],[1,0.5]];portConstraint=eastwest;fontSize=11;dashed=1;pointerEvents=1;opacity=50;align=left;verticalAlign=middle;fontFamily=Helvetica;fontColor=default;fontStyle=0;" vertex="1" parent="d76g4JhjwJhJm4ZZSWvx-12">
          <mxGeometry y="40" width="380" height="20" as="geometry" />
        </mxCell>
        <mxCell id="d76g4JhjwJhJm4ZZSWvx-22" value="&lt;span style=&quot;font-size: 12px;&quot;&gt;&lt;b&gt;&amp;nbsp; # sub_layers&lt;/b&gt;&lt;/span&gt;" style="shape=partialRectangle;html=1;whiteSpace=wrap;connectable=0;strokeColor=#b46504;overflow=hidden;fillColor=#fad7ac;top=0;left=0;bottom=0;right=0;pointerEvents=1;fontSize=11;align=left;dashed=1;opacity=50;verticalAlign=middle;fontFamily=Helvetica;fontStyle=0;" vertex="1" parent="d76g4JhjwJhJm4ZZSWvx-21">
          <mxGeometry width="380" height="20" as="geometry">
            <mxRectangle width="380" height="20" as="alternateBounds" />
          </mxGeometry>
        </mxCell>
        <mxCell id="d76g4JhjwJhJm4ZZSWvx-25" value="" style="shape=table;startSize=0;container=1;collapsible=0;childLayout=tableLayout;fontSize=11;dashed=1;opacity=50;strokeColor=inherit;align=left;verticalAlign=middle;fontFamily=Helvetica;fontColor=default;fontStyle=0;fillColor=none;pointerEvents=1;" vertex="1" parent="1">
          <mxGeometry x="-235" y="139" width="380" height="60" as="geometry" />
        </mxCell>
        <mxCell id="d76g4JhjwJhJm4ZZSWvx-26" value="" style="shape=tableRow;horizontal=0;startSize=0;swimlaneHead=0;swimlaneBody=0;strokeColor=inherit;top=0;left=0;bottom=0;right=0;collapsible=0;dropTarget=0;fillColor=none;points=[[0,0.5],[1,0.5]];portConstraint=eastwest;fontSize=11;dashed=1;opacity=50;align=left;verticalAlign=middle;fontFamily=Helvetica;fontColor=default;fontStyle=0;pointerEvents=1;" vertex="1" parent="d76g4JhjwJhJm4ZZSWvx-25">
          <mxGeometry width="380" height="18" as="geometry" />
        </mxCell>
        <mxCell id="d76g4JhjwJhJm4ZZSWvx-27" value="&lt;div style=&quot;font-size: 12px;&quot;&gt;&amp;nbsp; &amp;nbsp; openRequest.onupgradeneeded = (event) =&amp;gt; {&lt;/div&gt;" style="shape=partialRectangle;html=1;whiteSpace=wrap;connectable=0;strokeColor=inherit;overflow=hidden;fillColor=none;top=0;left=0;bottom=0;right=0;pointerEvents=1;fontSize=11;align=left;dashed=1;opacity=50;verticalAlign=middle;fontFamily=Helvetica;fontColor=default;fontStyle=0;" vertex="1" parent="d76g4JhjwJhJm4ZZSWvx-26">
          <mxGeometry width="380" height="18" as="geometry">
            <mxRectangle width="380" height="18" as="alternateBounds" />
          </mxGeometry>
        </mxCell>
        <mxCell id="d76g4JhjwJhJm4ZZSWvx-28" value="" style="shape=tableRow;horizontal=0;startSize=0;swimlaneHead=0;swimlaneBody=0;strokeColor=inherit;top=0;left=0;bottom=0;right=0;collapsible=0;dropTarget=0;fillColor=none;points=[[0,0.5],[1,0.5]];portConstraint=eastwest;fontSize=11;dashed=1;opacity=50;align=left;verticalAlign=middle;fontFamily=Helvetica;fontColor=default;fontStyle=0;pointerEvents=1;" vertex="1" parent="d76g4JhjwJhJm4ZZSWvx-25">
          <mxGeometry y="18" width="380" height="19" as="geometry" />
        </mxCell>
        <mxCell id="d76g4JhjwJhJm4ZZSWvx-29" value="&lt;div style=&quot;font-size: 12px;&quot;&gt;&lt;span style=&quot;background-color: transparent; color: light-dark(rgb(0, 0, 0), rgb(255, 255, 255));&quot;&gt;&lt;b&gt;&amp;nbsp; &amp;nbsp; &amp;nbsp; &amp;nbsp; # sub_layers&lt;/b&gt;&lt;/span&gt;&lt;/div&gt;" style="shape=partialRectangle;html=1;whiteSpace=wrap;connectable=0;strokeColor=#b46504;overflow=hidden;fillColor=#fad7ac;top=0;left=0;bottom=0;right=0;pointerEvents=1;fontSize=11;align=left;dashed=1;opacity=50;verticalAlign=middle;fontFamily=Helvetica;fontStyle=0;" vertex="1" parent="d76g4JhjwJhJm4ZZSWvx-28">
          <mxGeometry width="380" height="19" as="geometry">
            <mxRectangle width="380" height="19" as="alternateBounds" />
          </mxGeometry>
        </mxCell>
        <mxCell id="d76g4JhjwJhJm4ZZSWvx-30" value="" style="shape=tableRow;horizontal=0;startSize=0;swimlaneHead=0;swimlaneBody=0;strokeColor=inherit;top=0;left=0;bottom=0;right=0;collapsible=0;dropTarget=0;fillColor=none;points=[[0,0.5],[1,0.5]];portConstraint=eastwest;fontSize=11;dashed=1;opacity=50;align=left;verticalAlign=middle;fontFamily=Helvetica;fontColor=default;fontStyle=0;pointerEvents=1;" vertex="1" parent="d76g4JhjwJhJm4ZZSWvx-25">
          <mxGeometry y="37" width="380" height="23" as="geometry" />
        </mxCell>
        <mxCell id="d76g4JhjwJhJm4ZZSWvx-31" value="&lt;span style=&quot;font-size: 12px;&quot;&gt;&amp;nbsp; &amp;nbsp; }&lt;/span&gt;" style="shape=partialRectangle;html=1;whiteSpace=wrap;connectable=0;strokeColor=inherit;overflow=hidden;fillColor=none;top=0;left=0;bottom=0;right=0;pointerEvents=1;fontSize=11;align=left;dashed=1;opacity=50;verticalAlign=middle;fontFamily=Helvetica;fontColor=default;fontStyle=0;" vertex="1" parent="d76g4JhjwJhJm4ZZSWvx-30">
          <mxGeometry width="380" height="23" as="geometry">
            <mxRectangle width="380" height="23" as="alternateBounds" />
          </mxGeometry>
        </mxCell>
        <mxCell id="d76g4JhjwJhJm4ZZSWvx-32" value="" style="shape=table;startSize=0;container=1;collapsible=0;childLayout=tableLayout;fontSize=11;dashed=1;fontStyle=0;opacity=50;whiteSpace=wrap;" vertex="1" parent="1">
          <mxGeometry x="-180" y="239" width="550" height="260" as="geometry" />
        </mxCell>
        <mxCell id="d76g4JhjwJhJm4ZZSWvx-33" value="" style="shape=tableRow;horizontal=0;startSize=0;swimlaneHead=0;swimlaneBody=0;strokeColor=inherit;top=0;left=0;bottom=0;right=0;collapsible=0;dropTarget=0;fillColor=none;points=[[0,0.5],[1,0.5]];portConstraint=eastwest;fontSize=11;fontStyle=0" vertex="1" parent="d76g4JhjwJhJm4ZZSWvx-32">
          <mxGeometry width="550" height="18" as="geometry" />
        </mxCell>
        <mxCell id="d76g4JhjwJhJm4ZZSWvx-34" value="&lt;div&gt;&amp;nbsp; &amp;nbsp; db = event.target.result;&lt;/div&gt;" style="shape=partialRectangle;html=1;whiteSpace=wrap;connectable=0;strokeColor=inherit;overflow=hidden;fillColor=none;top=0;left=0;bottom=0;right=0;pointerEvents=1;fontSize=11;align=left;fontStyle=0" vertex="1" parent="d76g4JhjwJhJm4ZZSWvx-33">
          <mxGeometry width="550" height="18" as="geometry">
            <mxRectangle width="550" height="18" as="alternateBounds" />
          </mxGeometry>
        </mxCell>
        <mxCell id="d76g4JhjwJhJm4ZZSWvx-35" value="" style="shape=tableRow;horizontal=0;startSize=0;swimlaneHead=0;swimlaneBody=0;strokeColor=inherit;top=0;left=0;bottom=0;right=0;collapsible=0;dropTarget=0;fillColor=none;points=[[0,0.5],[1,0.5]];portConstraint=eastwest;fontSize=11;fontStyle=0" vertex="1" parent="d76g4JhjwJhJm4ZZSWvx-32">
          <mxGeometry y="18" width="550" height="26" as="geometry" />
        </mxCell>
        <mxCell id="d76g4JhjwJhJm4ZZSWvx-36" value="&lt;div&gt;&lt;span&gt;&amp;nbsp; &amp;nbsp; var objectStore_0 = db.createObjectStore(&#39;objectStore_0&#39;, {keypath: &#39;jDNqUydS&#39;, autoIncrement: false});&lt;/span&gt;&lt;/div&gt;" style="shape=partialRectangle;html=1;whiteSpace=wrap;connectable=0;strokeColor=inherit;overflow=hidden;fillColor=none;top=0;left=0;bottom=0;right=0;pointerEvents=1;fontSize=11;align=left;fontStyle=0" vertex="1" parent="d76g4JhjwJhJm4ZZSWvx-35">
          <mxGeometry width="550" height="26" as="geometry">
            <mxRectangle width="550" height="26" as="alternateBounds" />
          </mxGeometry>
        </mxCell>
        <mxCell id="d76g4JhjwJhJm4ZZSWvx-37" value="" style="shape=tableRow;horizontal=0;startSize=0;swimlaneHead=0;swimlaneBody=0;strokeColor=inherit;top=0;left=0;bottom=0;right=0;collapsible=0;dropTarget=0;fillColor=none;points=[[0,0.5],[1,0.5]];portConstraint=eastwest;fontSize=11;fontStyle=0" vertex="1" parent="d76g4JhjwJhJm4ZZSWvx-32">
          <mxGeometry y="44" width="550" height="21" as="geometry" />
        </mxCell>
        <mxCell id="d76g4JhjwJhJm4ZZSWvx-38" value="&lt;span&gt;&amp;nbsp; &amp;nbsp; var index_0 = objectStore_0.createIndex(&#39;index_0&#39;, &#39;test&#39;);&lt;/span&gt;" style="shape=partialRectangle;html=1;whiteSpace=wrap;connectable=0;strokeColor=inherit;overflow=hidden;fillColor=none;top=0;left=0;bottom=0;right=0;pointerEvents=1;fontSize=11;align=left;fontStyle=0" vertex="1" parent="d76g4JhjwJhJm4ZZSWvx-37">
          <mxGeometry width="550" height="21" as="geometry">
            <mxRectangle width="550" height="21" as="alternateBounds" />
          </mxGeometry>
        </mxCell>
        <mxCell id="d76g4JhjwJhJm4ZZSWvx-39" style="shape=tableRow;horizontal=0;startSize=0;swimlaneHead=0;swimlaneBody=0;strokeColor=inherit;top=0;left=0;bottom=0;right=0;collapsible=0;dropTarget=0;fillColor=none;points=[[0,0.5],[1,0.5]];portConstraint=eastwest;fontSize=11;fontStyle=0" vertex="1" parent="d76g4JhjwJhJm4ZZSWvx-32">
          <mxGeometry y="65" width="550" height="19" as="geometry" />
        </mxCell>
        <mxCell id="d76g4JhjwJhJm4ZZSWvx-40" value="&amp;nbsp; &amp;nbsp; var get_0;" style="shape=partialRectangle;html=1;whiteSpace=wrap;connectable=0;strokeColor=inherit;overflow=hidden;fillColor=none;top=0;left=0;bottom=0;right=0;pointerEvents=1;fontSize=11;align=left;fontStyle=0" vertex="1" parent="d76g4JhjwJhJm4ZZSWvx-39">
          <mxGeometry width="550" height="19" as="geometry">
            <mxRectangle width="550" height="19" as="alternateBounds" />
          </mxGeometry>
        </mxCell>
        <mxCell id="d76g4JhjwJhJm4ZZSWvx-41" style="shape=tableRow;horizontal=0;startSize=0;swimlaneHead=0;swimlaneBody=0;strokeColor=inherit;top=0;left=0;bottom=0;right=0;collapsible=0;dropTarget=0;fillColor=none;points=[[0,0.5],[1,0.5]];portConstraint=eastwest;fontSize=11;fontStyle=0" vertex="1" parent="d76g4JhjwJhJm4ZZSWvx-32">
          <mxGeometry y="84" width="550" height="19" as="geometry" />
        </mxCell>
        <mxCell id="d76g4JhjwJhJm4ZZSWvx-42" value="&amp;nbsp; &amp;nbsp; try {" style="shape=partialRectangle;html=1;whiteSpace=wrap;connectable=0;strokeColor=inherit;overflow=hidden;fillColor=none;top=0;left=0;bottom=0;right=0;pointerEvents=1;fontSize=11;align=left;fontStyle=0" vertex="1" parent="d76g4JhjwJhJm4ZZSWvx-41">
          <mxGeometry width="550" height="19" as="geometry">
            <mxRectangle width="550" height="19" as="alternateBounds" />
          </mxGeometry>
        </mxCell>
        <mxCell id="d76g4JhjwJhJm4ZZSWvx-43" style="shape=tableRow;horizontal=0;startSize=0;swimlaneHead=0;swimlaneBody=0;strokeColor=inherit;top=0;left=0;bottom=0;right=0;collapsible=0;dropTarget=0;fillColor=none;points=[[0,0.5],[1,0.5]];portConstraint=eastwest;fontSize=11;fontStyle=0" vertex="1" parent="d76g4JhjwJhJm4ZZSWvx-32">
          <mxGeometry y="103" width="550" height="20" as="geometry" />
        </mxCell>
        <mxCell id="d76g4JhjwJhJm4ZZSWvx-44" value="&amp;nbsp; &amp;nbsp; &amp;nbsp; &amp;nbsp; KeyRange_0 = IDBKeyRange.bound(&#39;XUJrADmHnDx&#39;, &#39;XUJrADmHnDx&#39;, true, true);" style="shape=partialRectangle;html=1;whiteSpace=wrap;connectable=0;strokeColor=inherit;overflow=hidden;fillColor=none;top=0;left=0;bottom=0;right=0;pointerEvents=1;fontSize=11;align=left;fontStyle=0" vertex="1" parent="d76g4JhjwJhJm4ZZSWvx-43">
          <mxGeometry width="550" height="20" as="geometry">
            <mxRectangle width="550" height="20" as="alternateBounds" />
          </mxGeometry>
        </mxCell>
        <mxCell id="d76g4JhjwJhJm4ZZSWvx-45" style="shape=tableRow;horizontal=0;startSize=0;swimlaneHead=0;swimlaneBody=0;strokeColor=inherit;top=0;left=0;bottom=0;right=0;collapsible=0;dropTarget=0;fillColor=none;points=[[0,0.5],[1,0.5]];portConstraint=eastwest;fontSize=11;fontStyle=0" vertex="1" parent="d76g4JhjwJhJm4ZZSWvx-32">
          <mxGeometry y="123" width="550" height="20" as="geometry" />
        </mxCell>
        <mxCell id="d76g4JhjwJhJm4ZZSWvx-46" value="&amp;nbsp; &amp;nbsp; &amp;nbsp; &amp;nbsp; get_0 = objectStore_0.get(KeyRange_0);" style="shape=partialRectangle;html=1;whiteSpace=wrap;connectable=0;strokeColor=inherit;overflow=hidden;fillColor=none;top=0;left=0;bottom=0;right=0;pointerEvents=1;fontSize=11;align=left;fontStyle=0" vertex="1" parent="d76g4JhjwJhJm4ZZSWvx-45">
          <mxGeometry width="550" height="20" as="geometry">
            <mxRectangle width="550" height="20" as="alternateBounds" />
          </mxGeometry>
        </mxCell>
        <mxCell id="d76g4JhjwJhJm4ZZSWvx-47" style="shape=tableRow;horizontal=0;startSize=0;swimlaneHead=0;swimlaneBody=0;strokeColor=inherit;top=0;left=0;bottom=0;right=0;collapsible=0;dropTarget=0;fillColor=none;points=[[0,0.5],[1,0.5]];portConstraint=eastwest;fontSize=11;fontStyle=0" vertex="1" parent="d76g4JhjwJhJm4ZZSWvx-32">
          <mxGeometry y="143" width="550" height="19" as="geometry" />
        </mxCell>
        <mxCell id="d76g4JhjwJhJm4ZZSWvx-48" value="&amp;nbsp; &amp;nbsp; } catch (e) {" style="shape=partialRectangle;html=1;whiteSpace=wrap;connectable=0;strokeColor=inherit;overflow=hidden;fillColor=none;top=0;left=0;bottom=0;right=0;pointerEvents=1;fontSize=11;align=left;fontStyle=0" vertex="1" parent="d76g4JhjwJhJm4ZZSWvx-47">
          <mxGeometry width="550" height="19" as="geometry">
            <mxRectangle width="550" height="19" as="alternateBounds" />
          </mxGeometry>
        </mxCell>
        <mxCell id="d76g4JhjwJhJm4ZZSWvx-59" style="shape=tableRow;horizontal=0;startSize=0;swimlaneHead=0;swimlaneBody=0;strokeColor=inherit;top=0;left=0;bottom=0;right=0;collapsible=0;dropTarget=0;fillColor=none;points=[[0,0.5],[1,0.5]];portConstraint=eastwest;fontSize=11;fontStyle=0" vertex="1" parent="d76g4JhjwJhJm4ZZSWvx-32">
          <mxGeometry y="162" width="550" height="20" as="geometry" />
        </mxCell>
        <mxCell id="d76g4JhjwJhJm4ZZSWvx-60" value="&amp;nbsp; &amp;nbsp; &amp;nbsp; &amp;nbsp; KeyRange_1 = IDBKeyRange.only(&#39;XUJrADmHnDx&#39;);" style="shape=partialRectangle;html=1;whiteSpace=wrap;connectable=0;strokeColor=inherit;overflow=hidden;fillColor=none;top=0;left=0;bottom=0;right=0;pointerEvents=1;fontSize=11;align=left;fontStyle=0" vertex="1" parent="d76g4JhjwJhJm4ZZSWvx-59">
          <mxGeometry width="550" height="20" as="geometry">
            <mxRectangle width="550" height="20" as="alternateBounds" />
          </mxGeometry>
        </mxCell>
        <mxCell id="d76g4JhjwJhJm4ZZSWvx-57" style="shape=tableRow;horizontal=0;startSize=0;swimlaneHead=0;swimlaneBody=0;strokeColor=inherit;top=0;left=0;bottom=0;right=0;collapsible=0;dropTarget=0;fillColor=none;points=[[0,0.5],[1,0.5]];portConstraint=eastwest;fontSize=11;fontStyle=0" vertex="1" parent="d76g4JhjwJhJm4ZZSWvx-32">
          <mxGeometry y="182" width="550" height="19" as="geometry" />
        </mxCell>
        <mxCell id="d76g4JhjwJhJm4ZZSWvx-58" value="&amp;nbsp; &amp;nbsp; &amp;nbsp; &amp;nbsp; get_0 = objectStore_0.get(KeyRange_1);" style="shape=partialRectangle;html=1;whiteSpace=wrap;connectable=0;strokeColor=inherit;overflow=hidden;fillColor=none;top=0;left=0;bottom=0;right=0;pointerEvents=1;fontSize=11;align=left;fontStyle=0" vertex="1" parent="d76g4JhjwJhJm4ZZSWvx-57">
          <mxGeometry width="550" height="19" as="geometry">
            <mxRectangle width="550" height="19" as="alternateBounds" />
          </mxGeometry>
        </mxCell>
        <mxCell id="d76g4JhjwJhJm4ZZSWvx-55" style="shape=tableRow;horizontal=0;startSize=0;swimlaneHead=0;swimlaneBody=0;strokeColor=inherit;top=0;left=0;bottom=0;right=0;collapsible=0;dropTarget=0;fillColor=none;points=[[0,0.5],[1,0.5]];portConstraint=eastwest;fontSize=11;fontStyle=0" vertex="1" parent="d76g4JhjwJhJm4ZZSWvx-32">
          <mxGeometry y="201" width="550" height="20" as="geometry" />
        </mxCell>
        <mxCell id="d76g4JhjwJhJm4ZZSWvx-56" value="&amp;nbsp; }" style="shape=partialRectangle;html=1;whiteSpace=wrap;connectable=0;strokeColor=inherit;overflow=hidden;fillColor=none;top=0;left=0;bottom=0;right=0;pointerEvents=1;fontSize=11;align=left;fontStyle=0" vertex="1" parent="d76g4JhjwJhJm4ZZSWvx-55">
          <mxGeometry width="550" height="20" as="geometry">
            <mxRectangle width="550" height="20" as="alternateBounds" />
          </mxGeometry>
        </mxCell>
        <mxCell id="d76g4JhjwJhJm4ZZSWvx-53" style="shape=tableRow;horizontal=0;startSize=0;swimlaneHead=0;swimlaneBody=0;strokeColor=inherit;top=0;left=0;bottom=0;right=0;collapsible=0;dropTarget=0;fillColor=none;points=[[0,0.5],[1,0.5]];portConstraint=eastwest;fontSize=11;fontStyle=0" vertex="1" parent="d76g4JhjwJhJm4ZZSWvx-32">
          <mxGeometry y="221" width="550" height="20" as="geometry" />
        </mxCell>
        <mxCell id="d76g4JhjwJhJm4ZZSWvx-54" value="&amp;nbsp; &amp;nbsp; var clear_0 = objectStore_0.clear();" style="shape=partialRectangle;html=1;whiteSpace=wrap;connectable=0;strokeColor=inherit;overflow=hidden;fillColor=none;top=0;left=0;bottom=0;right=0;pointerEvents=1;fontSize=11;align=left;fontStyle=0" vertex="1" parent="d76g4JhjwJhJm4ZZSWvx-53">
          <mxGeometry width="550" height="20" as="geometry">
            <mxRectangle width="550" height="20" as="alternateBounds" />
          </mxGeometry>
        </mxCell>
        <mxCell id="d76g4JhjwJhJm4ZZSWvx-61" style="shape=tableRow;horizontal=0;startSize=0;swimlaneHead=0;swimlaneBody=0;strokeColor=inherit;top=0;left=0;bottom=0;right=0;collapsible=0;dropTarget=0;fillColor=none;points=[[0,0.5],[1,0.5]];portConstraint=eastwest;fontSize=11;fontStyle=0" vertex="1" parent="d76g4JhjwJhJm4ZZSWvx-32">
          <mxGeometry y="241" width="550" height="19" as="geometry" />
        </mxCell>
        <mxCell id="d76g4JhjwJhJm4ZZSWvx-62" value="&lt;b&gt;&amp;nbsp; &amp;nbsp; # subLayers...&lt;/b&gt;" style="shape=partialRectangle;html=1;whiteSpace=wrap;connectable=0;strokeColor=#b46504;overflow=hidden;fillColor=#fad7ac;top=0;left=0;bottom=0;right=0;pointerEvents=1;fontSize=11;align=left;fontStyle=0;opacity=50;" vertex="1" parent="d76g4JhjwJhJm4ZZSWvx-61">
          <mxGeometry width="550" height="19" as="geometry">
            <mxRectangle width="550" height="19" as="alternateBounds" />
          </mxGeometry>
        </mxCell>
        <mxCell id="d76g4JhjwJhJm4ZZSWvx-63" value="" style="shape=table;startSize=0;container=1;collapsible=0;childLayout=tableLayout;fontSize=11;dashed=1;fontStyle=0;opacity=50;whiteSpace=wrap;" vertex="1" parent="1">
          <mxGeometry x="-70" y="639" width="550" height="91" as="geometry" />
        </mxCell>
        <mxCell id="d76g4JhjwJhJm4ZZSWvx-64" value="" style="shape=tableRow;horizontal=0;startSize=0;swimlaneHead=0;swimlaneBody=0;strokeColor=inherit;top=0;left=0;bottom=0;right=0;collapsible=0;dropTarget=0;fillColor=none;points=[[0,0.5],[1,0.5]];portConstraint=eastwest;fontSize=11;fontStyle=0" vertex="1" parent="d76g4JhjwJhJm4ZZSWvx-63">
          <mxGeometry width="550" height="21" as="geometry" />
        </mxCell>
        <mxCell id="d76g4JhjwJhJm4ZZSWvx-65" value="&lt;div&gt;&amp;nbsp; &amp;nbsp; &amp;nbsp; &amp;nbsp; db.deleteObjectStore(&#39;objectStore_0&#39;)&lt;/div&gt;" style="shape=partialRectangle;html=1;whiteSpace=wrap;connectable=0;strokeColor=inherit;overflow=hidden;fillColor=none;top=0;left=0;bottom=0;right=0;pointerEvents=1;fontSize=11;align=left;fontStyle=0" vertex="1" parent="d76g4JhjwJhJm4ZZSWvx-64">
          <mxGeometry width="550" height="21" as="geometry">
            <mxRectangle width="550" height="21" as="alternateBounds" />
          </mxGeometry>
        </mxCell>
        <mxCell id="d76g4JhjwJhJm4ZZSWvx-66" value="" style="shape=tableRow;horizontal=0;startSize=0;swimlaneHead=0;swimlaneBody=0;strokeColor=inherit;top=0;left=0;bottom=0;right=0;collapsible=0;dropTarget=0;fillColor=none;points=[[0,0.5],[1,0.5]];portConstraint=eastwest;fontSize=11;fontStyle=0" vertex="1" parent="d76g4JhjwJhJm4ZZSWvx-63">
          <mxGeometry y="21" width="550" height="28" as="geometry" />
        </mxCell>
        <mxCell id="d76g4JhjwJhJm4ZZSWvx-67" value="&amp;nbsp; &amp;nbsp; &amp;nbsp; &amp;nbsp; var objectStore_2 = db.createObjectStore(&#39;objectStore_2&#39;, {keypath: &#39;yrOcBVU&#39;, autoIncrement: true});" style="shape=partialRectangle;html=1;whiteSpace=wrap;connectable=0;strokeColor=inherit;overflow=hidden;fillColor=none;top=0;left=0;bottom=0;right=0;pointerEvents=1;fontSize=11;align=left;fontStyle=0" vertex="1" parent="d76g4JhjwJhJm4ZZSWvx-66">
          <mxGeometry width="550" height="28" as="geometry">
            <mxRectangle width="550" height="28" as="alternateBounds" />
          </mxGeometry>
        </mxCell>
        <mxCell id="d76g4JhjwJhJm4ZZSWvx-68" value="" style="shape=tableRow;horizontal=0;startSize=0;swimlaneHead=0;swimlaneBody=0;strokeColor=inherit;top=0;left=0;bottom=0;right=0;collapsible=0;dropTarget=0;fillColor=none;points=[[0,0.5],[1,0.5]];portConstraint=eastwest;fontSize=11;fontStyle=0" vertex="1" parent="d76g4JhjwJhJm4ZZSWvx-63">
          <mxGeometry y="49" width="550" height="21" as="geometry" />
        </mxCell>
        <mxCell id="d76g4JhjwJhJm4ZZSWvx-69" value="&amp;nbsp; &amp;nbsp; &amp;nbsp; &amp;nbsp; var index_2 = objectStore_2.createIndex(&#39;index_2&#39;, &#39;test&#39;);" style="shape=partialRectangle;html=1;whiteSpace=wrap;connectable=0;strokeColor=inherit;overflow=hidden;fillColor=none;top=0;left=0;bottom=0;right=0;pointerEvents=1;fontSize=11;align=left;fontStyle=0" vertex="1" parent="d76g4JhjwJhJm4ZZSWvx-68">
          <mxGeometry width="550" height="21" as="geometry">
            <mxRectangle width="550" height="21" as="alternateBounds" />
          </mxGeometry>
        </mxCell>
        <mxCell id="d76g4JhjwJhJm4ZZSWvx-70" style="shape=tableRow;horizontal=0;startSize=0;swimlaneHead=0;swimlaneBody=0;strokeColor=inherit;top=0;left=0;bottom=0;right=0;collapsible=0;dropTarget=0;fillColor=none;points=[[0,0.5],[1,0.5]];portConstraint=eastwest;fontSize=11;fontStyle=0" vertex="1" parent="d76g4JhjwJhJm4ZZSWvx-63">
          <mxGeometry y="70" width="550" height="21" as="geometry" />
        </mxCell>
        <mxCell id="d76g4JhjwJhJm4ZZSWvx-71" value="&lt;b&gt;&amp;nbsp; &amp;nbsp; &amp;nbsp; &amp;nbsp; # subLayers...&lt;/b&gt;" style="shape=partialRectangle;html=1;whiteSpace=wrap;connectable=0;strokeColor=#b46504;overflow=hidden;fillColor=#fad7ac;top=0;left=0;bottom=0;right=0;pointerEvents=1;fontSize=11;align=left;fontStyle=0;opacity=50;" vertex="1" parent="d76g4JhjwJhJm4ZZSWvx-70">
          <mxGeometry width="550" height="21" as="geometry">
            <mxRectangle width="550" height="21" as="alternateBounds" />
          </mxGeometry>
        </mxCell>
        <mxCell id="d76g4JhjwJhJm4ZZSWvx-98" value="" style="shape=table;startSize=0;container=1;collapsible=0;childLayout=tableLayout;fontSize=11;dashed=1;opacity=50;strokeColor=inherit;align=left;verticalAlign=middle;fontFamily=Helvetica;fontColor=default;fontStyle=0;fillColor=none;pointerEvents=1;" vertex="1" parent="1">
          <mxGeometry x="-120" y="539" width="380" height="60" as="geometry" />
        </mxCell>
        <mxCell id="d76g4JhjwJhJm4ZZSWvx-99" value="" style="shape=tableRow;horizontal=0;startSize=0;swimlaneHead=0;swimlaneBody=0;strokeColor=inherit;top=0;left=0;bottom=0;right=0;collapsible=0;dropTarget=0;fillColor=none;points=[[0,0.5],[1,0.5]];portConstraint=eastwest;fontSize=11;dashed=1;opacity=50;align=left;verticalAlign=middle;fontFamily=Helvetica;fontColor=default;fontStyle=0;pointerEvents=1;" vertex="1" parent="d76g4JhjwJhJm4ZZSWvx-98">
          <mxGeometry width="380" height="19" as="geometry" />
        </mxCell>
        <mxCell id="d76g4JhjwJhJm4ZZSWvx-100" value="&lt;div style=&quot;font-size: 12px;&quot;&gt;&amp;nbsp; &amp;nbsp; openRequest.onupgradeneeded = (event) =&amp;gt; {&lt;/div&gt;" style="shape=partialRectangle;html=1;whiteSpace=wrap;connectable=0;strokeColor=inherit;overflow=hidden;fillColor=none;top=0;left=0;bottom=0;right=0;pointerEvents=1;fontSize=11;align=left;dashed=1;opacity=50;verticalAlign=middle;fontFamily=Helvetica;fontColor=default;fontStyle=0;" vertex="1" parent="d76g4JhjwJhJm4ZZSWvx-99">
          <mxGeometry width="380" height="19" as="geometry">
            <mxRectangle width="380" height="19" as="alternateBounds" />
          </mxGeometry>
        </mxCell>
        <mxCell id="d76g4JhjwJhJm4ZZSWvx-101" value="" style="shape=tableRow;horizontal=0;startSize=0;swimlaneHead=0;swimlaneBody=0;strokeColor=inherit;top=0;left=0;bottom=0;right=0;collapsible=0;dropTarget=0;fillColor=none;points=[[0,0.5],[1,0.5]];portConstraint=eastwest;fontSize=11;dashed=1;opacity=50;align=left;verticalAlign=middle;fontFamily=Helvetica;fontColor=default;fontStyle=0;pointerEvents=1;" vertex="1" parent="d76g4JhjwJhJm4ZZSWvx-98">
          <mxGeometry y="19" width="380" height="22" as="geometry" />
        </mxCell>
        <mxCell id="d76g4JhjwJhJm4ZZSWvx-102" value="&lt;div style=&quot;font-size: 12px;&quot;&gt;&lt;span style=&quot;background-color: transparent; color: light-dark(rgb(0, 0, 0), rgb(255, 255, 255));&quot;&gt;&lt;b&gt;&amp;nbsp; &amp;nbsp; &amp;nbsp; &amp;nbsp; # sub_layers&lt;/b&gt;&lt;/span&gt;&lt;/div&gt;" style="shape=partialRectangle;html=1;whiteSpace=wrap;connectable=0;strokeColor=#b46504;overflow=hidden;fillColor=#fad7ac;top=0;left=0;bottom=0;right=0;pointerEvents=1;fontSize=11;align=left;dashed=1;opacity=50;verticalAlign=middle;fontFamily=Helvetica;fontStyle=0;" vertex="1" parent="d76g4JhjwJhJm4ZZSWvx-101">
          <mxGeometry width="380" height="22" as="geometry">
            <mxRectangle width="380" height="22" as="alternateBounds" />
          </mxGeometry>
        </mxCell>
        <mxCell id="d76g4JhjwJhJm4ZZSWvx-103" value="" style="shape=tableRow;horizontal=0;startSize=0;swimlaneHead=0;swimlaneBody=0;strokeColor=inherit;top=0;left=0;bottom=0;right=0;collapsible=0;dropTarget=0;fillColor=none;points=[[0,0.5],[1,0.5]];portConstraint=eastwest;fontSize=11;dashed=1;opacity=50;align=left;verticalAlign=middle;fontFamily=Helvetica;fontColor=default;fontStyle=0;pointerEvents=1;" vertex="1" parent="d76g4JhjwJhJm4ZZSWvx-98">
          <mxGeometry y="41" width="380" height="19" as="geometry" />
        </mxCell>
        <mxCell id="d76g4JhjwJhJm4ZZSWvx-104" value="&lt;span style=&quot;font-size: 12px;&quot;&gt;&amp;nbsp; &amp;nbsp; }&lt;/span&gt;" style="shape=partialRectangle;html=1;whiteSpace=wrap;connectable=0;strokeColor=inherit;overflow=hidden;fillColor=none;top=0;left=0;bottom=0;right=0;pointerEvents=1;fontSize=11;align=left;dashed=1;opacity=50;verticalAlign=middle;fontFamily=Helvetica;fontColor=default;fontStyle=0;" vertex="1" parent="d76g4JhjwJhJm4ZZSWvx-103">
          <mxGeometry width="380" height="19" as="geometry">
            <mxRectangle width="380" height="19" as="alternateBounds" />
          </mxGeometry>
        </mxCell>
        <mxCell id="d76g4JhjwJhJm4ZZSWvx-105" value="&lt;b style=&quot;font-family: &amp;quot;JetBrains Mono&amp;quot;, monospace;&quot;&gt;IDBDatabase_SchemaOps_Layer&lt;/b&gt;" style="text;whiteSpace=wrap;html=1;fontSize=15;" vertex="1" parent="1">
          <mxGeometry x="-70" y="609" width="275" height="30" as="geometry" />
        </mxCell>
        <mxCell id="d76g4JhjwJhJm4ZZSWvx-106" value="&lt;font face=&quot;JetBrains Mono, monospace&quot;&gt;&lt;span&gt;&lt;b&gt;IDBRequest_onsuccess_Layer&lt;/b&gt;&lt;/span&gt;&lt;/font&gt;" style="text;whiteSpace=wrap;html=1;fontSize=15;" vertex="1" parent="1">
          <mxGeometry y="739" width="275" height="30" as="geometry" />
        </mxCell>
        <mxCell id="d76g4JhjwJhJm4ZZSWvx-131" style="edgeStyle=orthogonalEdgeStyle;rounded=0;orthogonalLoop=1;jettySize=auto;html=1;entryX=0;entryY=0.5;entryDx=0;entryDy=0;" edge="1" parent="1" source="d76g4JhjwJhJm4ZZSWvx-107" target="d76g4JhjwJhJm4ZZSWvx-115">
          <mxGeometry relative="1" as="geometry">
            <Array as="points">
              <mxPoint x="-20" y="799" />
              <mxPoint x="-20" y="890" />
            </Array>
          </mxGeometry>
        </mxCell>
        <mxCell id="d76g4JhjwJhJm4ZZSWvx-107" value="" style="shape=table;startSize=0;container=1;collapsible=0;childLayout=tableLayout;fontSize=11;dashed=1;opacity=50;strokeColor=inherit;align=left;verticalAlign=middle;fontFamily=Helvetica;fontColor=default;fontStyle=0;fillColor=none;pointerEvents=1;" vertex="1" parent="1">
          <mxGeometry y="769" width="380" height="60" as="geometry" />
        </mxCell>
        <mxCell id="d76g4JhjwJhJm4ZZSWvx-108" value="" style="shape=tableRow;horizontal=0;startSize=0;swimlaneHead=0;swimlaneBody=0;strokeColor=inherit;top=0;left=0;bottom=0;right=0;collapsible=0;dropTarget=0;fillColor=none;points=[[0,0.5],[1,0.5]];portConstraint=eastwest;fontSize=11;dashed=1;opacity=50;align=left;verticalAlign=middle;fontFamily=Helvetica;fontColor=default;fontStyle=0;pointerEvents=1;" vertex="1" parent="d76g4JhjwJhJm4ZZSWvx-107">
          <mxGeometry width="380" height="19" as="geometry" />
        </mxCell>
        <mxCell id="d76g4JhjwJhJm4ZZSWvx-109" value="&lt;div style=&quot;font-size: 12px;&quot;&gt;&amp;nbsp; &amp;nbsp; get_0.onsuccess = (event) =&amp;gt; {&lt;/div&gt;" style="shape=partialRectangle;html=1;whiteSpace=wrap;connectable=0;strokeColor=inherit;overflow=hidden;fillColor=none;top=0;left=0;bottom=0;right=0;pointerEvents=1;fontSize=11;align=left;dashed=1;opacity=50;verticalAlign=middle;fontFamily=Helvetica;fontColor=default;fontStyle=0;" vertex="1" parent="d76g4JhjwJhJm4ZZSWvx-108">
          <mxGeometry width="380" height="19" as="geometry">
            <mxRectangle width="380" height="19" as="alternateBounds" />
          </mxGeometry>
        </mxCell>
        <mxCell id="d76g4JhjwJhJm4ZZSWvx-110" value="" style="shape=tableRow;horizontal=0;startSize=0;swimlaneHead=0;swimlaneBody=0;strokeColor=inherit;top=0;left=0;bottom=0;right=0;collapsible=0;dropTarget=0;fillColor=none;points=[[0,0.5],[1,0.5]];portConstraint=eastwest;fontSize=11;dashed=1;opacity=50;align=left;verticalAlign=middle;fontFamily=Helvetica;fontColor=default;fontStyle=0;pointerEvents=1;" vertex="1" parent="d76g4JhjwJhJm4ZZSWvx-107">
          <mxGeometry y="19" width="380" height="22" as="geometry" />
        </mxCell>
        <mxCell id="d76g4JhjwJhJm4ZZSWvx-111" value="&lt;div style=&quot;font-size: 12px;&quot;&gt;&lt;span style=&quot;background-color: transparent; color: light-dark(rgb(0, 0, 0), rgb(255, 255, 255));&quot;&gt;&lt;b&gt;&amp;nbsp; &amp;nbsp; &amp;nbsp; &amp;nbsp; # sub_layers&lt;/b&gt;&lt;/span&gt;&lt;/div&gt;" style="shape=partialRectangle;html=1;whiteSpace=wrap;connectable=0;strokeColor=#b46504;overflow=hidden;fillColor=#fad7ac;top=0;left=0;bottom=0;right=0;pointerEvents=1;fontSize=11;align=left;dashed=1;opacity=50;verticalAlign=middle;fontFamily=Helvetica;fontStyle=0;" vertex="1" parent="d76g4JhjwJhJm4ZZSWvx-110">
          <mxGeometry width="380" height="22" as="geometry">
            <mxRectangle width="380" height="22" as="alternateBounds" />
          </mxGeometry>
        </mxCell>
        <mxCell id="d76g4JhjwJhJm4ZZSWvx-112" value="" style="shape=tableRow;horizontal=0;startSize=0;swimlaneHead=0;swimlaneBody=0;strokeColor=inherit;top=0;left=0;bottom=0;right=0;collapsible=0;dropTarget=0;fillColor=none;points=[[0,0.5],[1,0.5]];portConstraint=eastwest;fontSize=11;dashed=1;opacity=50;align=left;verticalAlign=middle;fontFamily=Helvetica;fontColor=default;fontStyle=0;pointerEvents=1;" vertex="1" parent="d76g4JhjwJhJm4ZZSWvx-107">
          <mxGeometry y="41" width="380" height="19" as="geometry" />
        </mxCell>
        <mxCell id="d76g4JhjwJhJm4ZZSWvx-113" value="&lt;span style=&quot;font-size: 12px;&quot;&gt;&amp;nbsp; &amp;nbsp; }&lt;/span&gt;" style="shape=partialRectangle;html=1;whiteSpace=wrap;connectable=0;strokeColor=inherit;overflow=hidden;fillColor=none;top=0;left=0;bottom=0;right=0;pointerEvents=1;fontSize=11;align=left;dashed=1;opacity=50;verticalAlign=middle;fontFamily=Helvetica;fontColor=default;fontStyle=0;" vertex="1" parent="d76g4JhjwJhJm4ZZSWvx-112">
          <mxGeometry width="380" height="19" as="geometry">
            <mxRectangle width="380" height="19" as="alternateBounds" />
          </mxGeometry>
        </mxCell>
        <mxCell id="d76g4JhjwJhJm4ZZSWvx-114" value="" style="shape=table;startSize=0;container=1;collapsible=0;childLayout=tableLayout;fontSize=11;dashed=1;fontStyle=0;opacity=50;whiteSpace=wrap;" vertex="1" parent="1">
          <mxGeometry x="50" y="879" width="450" height="21" as="geometry" />
        </mxCell>
        <mxCell id="d76g4JhjwJhJm4ZZSWvx-115" value="" style="shape=tableRow;horizontal=0;startSize=0;swimlaneHead=0;swimlaneBody=0;strokeColor=inherit;top=0;left=0;bottom=0;right=0;collapsible=0;dropTarget=0;fillColor=none;points=[[0,0.5],[1,0.5]];portConstraint=eastwest;fontSize=11;fontStyle=0" vertex="1" parent="d76g4JhjwJhJm4ZZSWvx-114">
          <mxGeometry width="450" height="21" as="geometry" />
        </mxCell>
        <mxCell id="d76g4JhjwJhJm4ZZSWvx-116" value="&lt;div&gt;&amp;nbsp;var index_3 = objectStore_1.createIndex(&#39;index_3&#39;, &#39;test&#39;, {unique: false, multiEntry: false});&lt;/div&gt;" style="shape=partialRectangle;html=1;whiteSpace=wrap;connectable=0;strokeColor=inherit;overflow=hidden;fillColor=none;top=0;left=0;bottom=0;right=0;pointerEvents=1;fontSize=11;align=left;fontStyle=0" vertex="1" parent="d76g4JhjwJhJm4ZZSWvx-115">
          <mxGeometry width="450" height="21" as="geometry">
            <mxRectangle width="450" height="21" as="alternateBounds" />
          </mxGeometry>
        </mxCell>
        <mxCell id="d76g4JhjwJhJm4ZZSWvx-123" value="&lt;b style=&quot;font-family: &amp;quot;JetBrains Mono&amp;quot;, monospace;&quot;&gt;IDBDatabase_SchemaOps_Layer&lt;/b&gt;" style="text;whiteSpace=wrap;html=1;fontSize=15;" vertex="1" parent="1">
          <mxGeometry x="50" y="849" width="275" height="30" as="geometry" />
        </mxCell>
        <mxCell id="d76g4JhjwJhJm4ZZSWvx-125" style="edgeStyle=orthogonalEdgeStyle;rounded=0;orthogonalLoop=1;jettySize=auto;html=1;entryX=0;entryY=0.25;entryDx=0;entryDy=0;" edge="1" parent="1" source="d76g4JhjwJhJm4ZZSWvx-21" target="d76g4JhjwJhJm4ZZSWvx-25">
          <mxGeometry relative="1" as="geometry">
            <Array as="points">
              <mxPoint x="-290" y="90" />
              <mxPoint x="-290" y="154" />
            </Array>
          </mxGeometry>
        </mxCell>
        <mxCell id="d76g4JhjwJhJm4ZZSWvx-126" style="edgeStyle=orthogonalEdgeStyle;rounded=0;orthogonalLoop=1;jettySize=auto;html=1;entryX=0;entryY=0.5;entryDx=0;entryDy=0;" edge="1" parent="1" source="d76g4JhjwJhJm4ZZSWvx-28" target="d76g4JhjwJhJm4ZZSWvx-33">
          <mxGeometry relative="1" as="geometry">
            <Array as="points">
              <mxPoint x="-270" y="167" />
              <mxPoint x="-270" y="248" />
            </Array>
          </mxGeometry>
        </mxCell>
        <mxCell id="d76g4JhjwJhJm4ZZSWvx-127" style="edgeStyle=orthogonalEdgeStyle;rounded=0;orthogonalLoop=1;jettySize=auto;html=1;entryX=0;entryY=0.5;entryDx=0;entryDy=0;" edge="1" parent="1" source="d76g4JhjwJhJm4ZZSWvx-61" target="d76g4JhjwJhJm4ZZSWvx-99">
          <mxGeometry relative="1" as="geometry" />
        </mxCell>
        <mxCell id="d76g4JhjwJhJm4ZZSWvx-128" style="edgeStyle=orthogonalEdgeStyle;rounded=0;orthogonalLoop=1;jettySize=auto;html=1;" edge="1" parent="1" source="d76g4JhjwJhJm4ZZSWvx-101" target="d76g4JhjwJhJm4ZZSWvx-64">
          <mxGeometry relative="1" as="geometry">
            <Array as="points">
              <mxPoint x="-140" y="569" />
              <mxPoint x="-140" y="650" />
            </Array>
          </mxGeometry>
        </mxCell>
        <mxCell id="d76g4JhjwJhJm4ZZSWvx-130" style="edgeStyle=orthogonalEdgeStyle;rounded=0;orthogonalLoop=1;jettySize=auto;html=1;entryX=0;entryY=0.5;entryDx=0;entryDy=0;" edge="1" parent="1" source="d76g4JhjwJhJm4ZZSWvx-70" target="d76g4JhjwJhJm4ZZSWvx-108">
          <mxGeometry relative="1" as="geometry" />
        </mxCell>
        <UserObject label="let db;&#xa;const openRequest = window.indexedDB.open(&#39;str_726&#39;, 74)&#xa;openRequest.onupgradeneeded = (event) =&gt; {&#xa;    db = event.target.result;&#xa;    var objectStore_0 = db.createObjectStore(&#39;objectStore_0&#39;, {keypath: &#39;jDNqUydS&#39;, autoIncrement: false});&#xa;    var index_0 = objectStore_0.createIndex(&#39;index_0&#39;, &#39;test&#39;);&#xa;    var get_0;&#xa;    try {&#xa;        KeyRange_0 = IDBKeyRange.bound(&#39;XUJrADmHnDx&#39;, &#39;XUJrADmHnDx&#39;, true, true);&#xa;        get_0 = objectStore_0.get(KeyRange_0);&#xa;    } catch (e) {&#xa;        KeyRange_1 = IDBKeyRange.only(&#39;XUJrADmHnDx&#39;);&#xa;        get_0 = objectStore_0.get(KeyRange_1);&#xa;    }&#xa;    var clear_0 = objectStore_0.clear();&#xa;    clear_0.onsuccess = (event) =&gt; {&#xa;        db.deleteObjectStore(&#39;objectStore_0&#39;)&#xa;        var objectStore_2 = db.createObjectStore(&#39;objectStore_2&#39;, {keypath: &#39;yrOcBVU&#39;, autoIncrement: true});&#xa;        var index_2 = objectStore_2.createIndex(&#39;index_2&#39;, &#39;test&#39;);&#xa;        get_0.onsuccess = (event) =&gt; {&#xa;            var index_3;&#xa;            index_3 = objectStore_1.createIndex(&#39;index_3&#39;, &#39;test&#39;, {unique: false, multiEntry: false});&#xa;        };&#xa;    };&#xa;};" link="let db;&#xa;const openRequest = window.indexedDB.open(&#39;str_726&#39;, 74)&#xa;openRequest.onupgradeneeded = (event) =&gt; {&#xa;    db = event.target.result;&#xa;    var objectStore_0 = db.createObjectStore(&#39;objectStore_0&#39;, {keypath: &#39;jDNqUydS&#39;, autoIncrement: false});&#xa;    var index_0 = objectStore_0.createIndex(&#39;index_0&#39;, &#39;test&#39;);&#xa;    var get_0;&#xa;    try {&#xa;        KeyRange_0 = IDBKeyRange.bound(&#39;XUJrADmHnDx&#39;, &#39;XUJrADmHnDx&#39;, true, true);&#xa;        get_0 = objectStore_0.get(KeyRange_0);&#xa;    } catch (e) {&#xa;        KeyRange_1 = IDBKeyRange.only(&#39;XUJrADmHnDx&#39;);&#xa;        get_0 = objectStore_0.get(KeyRange_1);&#xa;    }&#xa;    var clear_0 = objectStore_0.clear();&#xa;    clear_0.onsuccess = (event) =&gt; {&#xa;        db.deleteObjectStore(&#39;objectStore_0&#39;)&#xa;        var objectStore_2 = db.createObjectStore(&#39;objectStore_2&#39;, {keypath: &#39;yrOcBVU&#39;, autoIncrement: true});&#xa;        var index_2 = objectStore_2.createIndex(&#39;index_2&#39;, &#39;test&#39;);&#xa;        get_0.onsuccess = (event) =&gt; {&#xa;            var index_3;&#xa;            index_3 = objectStore_1.createIndex(&#39;index_3&#39;, &#39;test&#39;, {unique: false, multiEntry: false});&#xa;        };&#xa;    };&#xa;};" id="d76g4JhjwJhJm4ZZSWvx-133">
          <mxCell style="text;whiteSpace=wrap;strokeColor=default;" vertex="1" parent="1">
            <mxGeometry x="-920" y="300" width="560" height="410" as="geometry" />
          </mxCell>
        </UserObject>
        <mxCell id="d76g4JhjwJhJm4ZZSWvx-137" value="&lt;font face=&quot;JetBrains Mono, monospace&quot;&gt;&lt;span&gt;&lt;b&gt;IRContext&lt;/b&gt;&lt;/span&gt;&lt;/font&gt;" style="text;whiteSpace=wrap;html=1;fontSize=12;" vertex="1" parent="1">
          <mxGeometry x="700" y="359" width="80" height="30" as="geometry" />
        </mxCell>
        <mxCell id="d76g4JhjwJhJm4ZZSWvx-138" value="" style="shape=table;startSize=0;container=1;collapsible=0;childLayout=tableLayout;fontSize=12;pointerEvents=1;opacity=50;strokeColor=inherit;align=center;verticalAlign=middle;fontFamily=Helvetica;fontColor=default;fontStyle=0;fillColor=none;" vertex="1" parent="1">
          <mxGeometry x="700" y="389" width="270" height="141" as="geometry" />
        </mxCell>
        <mxCell id="d76g4JhjwJhJm4ZZSWvx-139" value="" style="shape=tableRow;horizontal=0;startSize=0;swimlaneHead=0;swimlaneBody=0;strokeColor=inherit;top=0;left=0;bottom=0;right=0;collapsible=0;dropTarget=0;fillColor=none;points=[[0,0.5],[1,0.5]];portConstraint=eastwest;fontSize=12;dashed=1;pointerEvents=1;opacity=50;align=center;verticalAlign=middle;fontFamily=Helvetica;fontColor=default;fontStyle=0;" vertex="1" parent="d76g4JhjwJhJm4ZZSWvx-138">
          <mxGeometry width="270" height="20" as="geometry" />
        </mxCell>
        <mxCell id="d76g4JhjwJhJm4ZZSWvx-140" value="Identifier" style="shape=partialRectangle;html=1;whiteSpace=wrap;connectable=0;strokeColor=inherit;overflow=hidden;fillColor=none;top=0;left=0;bottom=0;right=0;pointerEvents=1;fontSize=12;align=center;dashed=1;opacity=50;verticalAlign=middle;fontFamily=Helvetica;fontColor=default;fontStyle=1;" vertex="1" parent="d76g4JhjwJhJm4ZZSWvx-139">
          <mxGeometry width="135" height="20" as="geometry">
            <mxRectangle width="135" height="20" as="alternateBounds" />
          </mxGeometry>
        </mxCell>
        <mxCell id="d76g4JhjwJhJm4ZZSWvx-149" value="IDBType" style="shape=partialRectangle;html=1;whiteSpace=wrap;connectable=0;strokeColor=inherit;overflow=hidden;fillColor=none;top=0;left=0;bottom=0;right=0;pointerEvents=1;fontSize=12;align=center;dashed=1;opacity=50;verticalAlign=middle;fontFamily=Helvetica;fontColor=default;fontStyle=1;" vertex="1" parent="d76g4JhjwJhJm4ZZSWvx-139">
          <mxGeometry x="135" width="135" height="20" as="geometry">
            <mxRectangle width="135" height="20" as="alternateBounds" />
          </mxGeometry>
        </mxCell>
        <mxCell id="d76g4JhjwJhJm4ZZSWvx-141" value="" style="shape=tableRow;horizontal=0;startSize=0;swimlaneHead=0;swimlaneBody=0;strokeColor=inherit;top=0;left=0;bottom=0;right=0;collapsible=0;dropTarget=0;fillColor=none;points=[[0,0.5],[1,0.5]];portConstraint=eastwest;fontSize=12;dashed=1;pointerEvents=1;opacity=50;align=center;verticalAlign=middle;fontFamily=Helvetica;fontColor=default;fontStyle=0;" vertex="1" parent="d76g4JhjwJhJm4ZZSWvx-138">
          <mxGeometry y="20" width="270" height="20" as="geometry" />
        </mxCell>
        <mxCell id="d76g4JhjwJhJm4ZZSWvx-142" value="db" style="shape=partialRectangle;html=1;whiteSpace=wrap;connectable=0;strokeColor=inherit;overflow=hidden;fillColor=none;top=0;left=0;bottom=0;right=0;pointerEvents=1;fontSize=12;align=center;dashed=1;opacity=50;verticalAlign=middle;fontFamily=Helvetica;fontColor=default;fontStyle=0;" vertex="1" parent="d76g4JhjwJhJm4ZZSWvx-141">
          <mxGeometry width="135" height="20" as="geometry">
            <mxRectangle width="135" height="20" as="alternateBounds" />
          </mxGeometry>
        </mxCell>
        <mxCell id="d76g4JhjwJhJm4ZZSWvx-150" value="IDBDataBase" style="shape=partialRectangle;html=1;whiteSpace=wrap;connectable=0;strokeColor=inherit;overflow=hidden;fillColor=none;top=0;left=0;bottom=0;right=0;pointerEvents=1;fontSize=12;align=center;dashed=1;opacity=50;verticalAlign=middle;fontFamily=Helvetica;fontColor=default;fontStyle=0;" vertex="1" parent="d76g4JhjwJhJm4ZZSWvx-141">
          <mxGeometry x="135" width="135" height="20" as="geometry">
            <mxRectangle width="135" height="20" as="alternateBounds" />
          </mxGeometry>
        </mxCell>
        <mxCell id="d76g4JhjwJhJm4ZZSWvx-147" style="shape=tableRow;horizontal=0;startSize=0;swimlaneHead=0;swimlaneBody=0;strokeColor=inherit;top=0;left=0;bottom=0;right=0;collapsible=0;dropTarget=0;fillColor=none;points=[[0,0.5],[1,0.5]];portConstraint=eastwest;fontSize=12;dashed=1;pointerEvents=1;opacity=50;align=center;verticalAlign=middle;fontFamily=Helvetica;fontColor=default;fontStyle=0;" vertex="1" parent="d76g4JhjwJhJm4ZZSWvx-138">
          <mxGeometry y="40" width="270" height="21" as="geometry" />
        </mxCell>
        <mxCell id="d76g4JhjwJhJm4ZZSWvx-148" value="openRequest" style="shape=partialRectangle;html=1;whiteSpace=wrap;connectable=0;strokeColor=inherit;overflow=hidden;fillColor=none;top=0;left=0;bottom=0;right=0;pointerEvents=1;fontSize=12;align=center;dashed=1;opacity=50;verticalAlign=middle;fontFamily=Helvetica;fontColor=default;fontStyle=0;" vertex="1" parent="d76g4JhjwJhJm4ZZSWvx-147">
          <mxGeometry width="135" height="21" as="geometry">
            <mxRectangle width="135" height="21" as="alternateBounds" />
          </mxGeometry>
        </mxCell>
        <mxCell id="d76g4JhjwJhJm4ZZSWvx-151" value="IDBOpenDBRequest" style="shape=partialRectangle;html=1;whiteSpace=wrap;connectable=0;strokeColor=inherit;overflow=hidden;fillColor=none;top=0;left=0;bottom=0;right=0;pointerEvents=1;fontSize=12;align=center;dashed=1;opacity=50;verticalAlign=middle;fontFamily=Helvetica;fontColor=default;fontStyle=0;" vertex="1" parent="d76g4JhjwJhJm4ZZSWvx-147">
          <mxGeometry x="135" width="135" height="21" as="geometry">
            <mxRectangle width="135" height="21" as="alternateBounds" />
          </mxGeometry>
        </mxCell>
        <mxCell id="d76g4JhjwJhJm4ZZSWvx-145" style="shape=tableRow;horizontal=0;startSize=0;swimlaneHead=0;swimlaneBody=0;strokeColor=inherit;top=0;left=0;bottom=0;right=0;collapsible=0;dropTarget=0;fillColor=none;points=[[0,0.5],[1,0.5]];portConstraint=eastwest;fontSize=12;dashed=1;pointerEvents=1;opacity=50;align=center;verticalAlign=middle;fontFamily=Helvetica;fontColor=default;fontStyle=0;" vertex="1" parent="d76g4JhjwJhJm4ZZSWvx-138">
          <mxGeometry y="61" width="270" height="20" as="geometry" />
        </mxCell>
        <mxCell id="d76g4JhjwJhJm4ZZSWvx-146" value="objectStore_0" style="shape=partialRectangle;html=1;whiteSpace=wrap;connectable=0;strokeColor=inherit;overflow=hidden;fillColor=none;top=0;left=0;bottom=0;right=0;pointerEvents=1;fontSize=12;align=center;dashed=1;opacity=50;verticalAlign=middle;fontFamily=Helvetica;fontColor=default;fontStyle=0;" vertex="1" parent="d76g4JhjwJhJm4ZZSWvx-145">
          <mxGeometry width="135" height="20" as="geometry">
            <mxRectangle width="135" height="20" as="alternateBounds" />
          </mxGeometry>
        </mxCell>
        <mxCell id="d76g4JhjwJhJm4ZZSWvx-152" value="IDBObjectStore" style="shape=partialRectangle;html=1;whiteSpace=wrap;connectable=0;strokeColor=inherit;overflow=hidden;fillColor=none;top=0;left=0;bottom=0;right=0;pointerEvents=1;fontSize=12;align=center;dashed=1;opacity=50;verticalAlign=middle;fontFamily=Helvetica;fontColor=default;fontStyle=0;" vertex="1" parent="d76g4JhjwJhJm4ZZSWvx-145">
          <mxGeometry x="135" width="135" height="20" as="geometry">
            <mxRectangle width="135" height="20" as="alternateBounds" />
          </mxGeometry>
        </mxCell>
        <mxCell id="d76g4JhjwJhJm4ZZSWvx-153" style="shape=tableRow;horizontal=0;startSize=0;swimlaneHead=0;swimlaneBody=0;strokeColor=inherit;top=0;left=0;bottom=0;right=0;collapsible=0;dropTarget=0;fillColor=none;points=[[0,0.5],[1,0.5]];portConstraint=eastwest;fontSize=12;dashed=1;pointerEvents=1;opacity=50;align=center;verticalAlign=middle;fontFamily=Helvetica;fontColor=default;fontStyle=0;" vertex="1" parent="d76g4JhjwJhJm4ZZSWvx-138">
          <mxGeometry y="81" width="270" height="20" as="geometry" />
        </mxCell>
        <mxCell id="d76g4JhjwJhJm4ZZSWvx-154" value="index_0" style="shape=partialRectangle;html=1;whiteSpace=wrap;connectable=0;strokeColor=inherit;overflow=hidden;fillColor=none;top=0;left=0;bottom=0;right=0;pointerEvents=1;fontSize=12;align=center;dashed=1;opacity=50;verticalAlign=middle;fontFamily=Helvetica;fontColor=default;fontStyle=0;" vertex="1" parent="d76g4JhjwJhJm4ZZSWvx-153">
          <mxGeometry width="135" height="20" as="geometry">
            <mxRectangle width="135" height="20" as="alternateBounds" />
          </mxGeometry>
        </mxCell>
        <mxCell id="d76g4JhjwJhJm4ZZSWvx-155" value="IDBIndex" style="shape=partialRectangle;html=1;whiteSpace=wrap;connectable=0;strokeColor=inherit;overflow=hidden;fillColor=none;top=0;left=0;bottom=0;right=0;pointerEvents=1;fontSize=12;align=center;dashed=1;opacity=50;verticalAlign=middle;fontFamily=Helvetica;fontColor=default;fontStyle=0;" vertex="1" parent="d76g4JhjwJhJm4ZZSWvx-153">
          <mxGeometry x="135" width="135" height="20" as="geometry">
            <mxRectangle width="135" height="20" as="alternateBounds" />
          </mxGeometry>
        </mxCell>
        <mxCell id="d76g4JhjwJhJm4ZZSWvx-156" style="shape=tableRow;horizontal=0;startSize=0;swimlaneHead=0;swimlaneBody=0;strokeColor=inherit;top=0;left=0;bottom=0;right=0;collapsible=0;dropTarget=0;fillColor=none;points=[[0,0.5],[1,0.5]];portConstraint=eastwest;fontSize=12;dashed=1;pointerEvents=1;opacity=50;align=center;verticalAlign=middle;fontFamily=Helvetica;fontColor=default;fontStyle=0;" vertex="1" parent="d76g4JhjwJhJm4ZZSWvx-138">
          <mxGeometry y="101" width="270" height="20" as="geometry" />
        </mxCell>
        <mxCell id="d76g4JhjwJhJm4ZZSWvx-157" value="get_0" style="shape=partialRectangle;html=1;whiteSpace=wrap;connectable=0;strokeColor=inherit;overflow=hidden;fillColor=none;top=0;left=0;bottom=0;right=0;pointerEvents=1;fontSize=12;align=center;dashed=1;opacity=50;verticalAlign=middle;fontFamily=Helvetica;fontColor=default;fontStyle=0;" vertex="1" parent="d76g4JhjwJhJm4ZZSWvx-156">
          <mxGeometry width="135" height="20" as="geometry">
            <mxRectangle width="135" height="20" as="alternateBounds" />
          </mxGeometry>
        </mxCell>
        <mxCell id="d76g4JhjwJhJm4ZZSWvx-158" value="IDBRequest" style="shape=partialRectangle;html=1;whiteSpace=wrap;connectable=0;strokeColor=inherit;overflow=hidden;fillColor=none;top=0;left=0;bottom=0;right=0;pointerEvents=1;fontSize=12;align=center;dashed=1;opacity=50;verticalAlign=middle;fontFamily=Helvetica;fontColor=default;fontStyle=0;" vertex="1" parent="d76g4JhjwJhJm4ZZSWvx-156">
          <mxGeometry x="135" width="135" height="20" as="geometry">
            <mxRectangle width="135" height="20" as="alternateBounds" />
          </mxGeometry>
        </mxCell>
        <mxCell id="d76g4JhjwJhJm4ZZSWvx-159" style="shape=tableRow;horizontal=0;startSize=0;swimlaneHead=0;swimlaneBody=0;strokeColor=inherit;top=0;left=0;bottom=0;right=0;collapsible=0;dropTarget=0;fillColor=none;points=[[0,0.5],[1,0.5]];portConstraint=eastwest;fontSize=12;dashed=1;pointerEvents=1;opacity=50;align=center;verticalAlign=middle;fontFamily=Helvetica;fontColor=default;fontStyle=0;" vertex="1" parent="d76g4JhjwJhJm4ZZSWvx-138">
          <mxGeometry y="121" width="270" height="20" as="geometry" />
        </mxCell>
        <mxCell id="d76g4JhjwJhJm4ZZSWvx-160" value="clear_0" style="shape=partialRectangle;html=1;whiteSpace=wrap;connectable=0;strokeColor=inherit;overflow=hidden;fillColor=none;top=0;left=0;bottom=0;right=0;pointerEvents=1;fontSize=12;align=center;dashed=1;opacity=50;verticalAlign=middle;fontFamily=Helvetica;fontColor=default;fontStyle=0;" vertex="1" parent="d76g4JhjwJhJm4ZZSWvx-159">
          <mxGeometry width="135" height="20" as="geometry">
            <mxRectangle width="135" height="20" as="alternateBounds" />
          </mxGeometry>
        </mxCell>
        <mxCell id="d76g4JhjwJhJm4ZZSWvx-161" value="IDBRequest" style="shape=partialRectangle;html=1;whiteSpace=wrap;connectable=0;strokeColor=inherit;overflow=hidden;fillColor=none;top=0;left=0;bottom=0;right=0;pointerEvents=1;fontSize=12;align=center;dashed=1;opacity=50;verticalAlign=middle;fontFamily=Helvetica;fontColor=default;fontStyle=0;" vertex="1" parent="d76g4JhjwJhJm4ZZSWvx-159">
          <mxGeometry x="135" width="135" height="20" as="geometry">
            <mxRectangle width="135" height="20" as="alternateBounds" />
          </mxGeometry>
        </mxCell>
        <mxCell id="d76g4JhjwJhJm4ZZSWvx-170" value="&lt;font face=&quot;JetBrains Mono, monospace&quot;&gt;&lt;span&gt;&lt;b&gt;IDBContext&lt;/b&gt;&lt;/span&gt;&lt;/font&gt;" style="text;whiteSpace=wrap;html=1;fontSize=12;" vertex="1" parent="1">
          <mxGeometry x="700" y="549" width="80" height="30" as="geometry" />
        </mxCell>
        <mxCell id="d76g4JhjwJhJm4ZZSWvx-171" value="" style="shape=table;startSize=0;container=1;collapsible=0;childLayout=tableLayout;fontSize=12;pointerEvents=1;opacity=50;strokeColor=inherit;align=center;verticalAlign=middle;fontFamily=Helvetica;fontColor=default;fontStyle=0;fillColor=none;" vertex="1" parent="1">
          <mxGeometry x="700" y="573" width="490" height="106" as="geometry" />
        </mxCell>
        <mxCell id="d76g4JhjwJhJm4ZZSWvx-172" value="" style="shape=tableRow;horizontal=0;startSize=0;swimlaneHead=0;swimlaneBody=0;strokeColor=inherit;top=0;left=0;bottom=0;right=0;collapsible=0;dropTarget=0;fillColor=none;points=[[0,0.5],[1,0.5]];portConstraint=eastwest;fontSize=12;dashed=1;pointerEvents=1;opacity=50;align=center;verticalAlign=middle;fontFamily=Helvetica;fontColor=default;fontStyle=0;" vertex="1" parent="d76g4JhjwJhJm4ZZSWvx-171">
          <mxGeometry width="490" height="35" as="geometry" />
        </mxCell>
        <mxCell id="d76g4JhjwJhJm4ZZSWvx-173" value="Database" style="shape=partialRectangle;html=1;whiteSpace=wrap;connectable=0;strokeColor=inherit;overflow=hidden;fillColor=none;top=0;left=0;bottom=0;right=0;pointerEvents=1;fontSize=12;align=center;dashed=1;opacity=50;verticalAlign=middle;fontFamily=Helvetica;fontColor=default;fontStyle=1;" vertex="1" parent="d76g4JhjwJhJm4ZZSWvx-172">
          <mxGeometry width="110" height="35" as="geometry">
            <mxRectangle width="110" height="35" as="alternateBounds" />
          </mxGeometry>
        </mxCell>
        <mxCell id="d76g4JhjwJhJm4ZZSWvx-174" value="&lt;span style=&quot;font-weight: normal;&quot;&gt;{name:str_726, version: 74}&lt;/span&gt;" style="shape=partialRectangle;html=1;whiteSpace=wrap;connectable=0;strokeColor=inherit;overflow=hidden;fillColor=none;top=0;left=0;bottom=0;right=0;pointerEvents=1;fontSize=13;align=center;dashed=1;opacity=50;verticalAlign=middle;fontFamily=Helvetica;fontColor=default;fontStyle=1;" vertex="1" parent="d76g4JhjwJhJm4ZZSWvx-172">
          <mxGeometry x="110" width="380" height="35" as="geometry">
            <mxRectangle width="380" height="35" as="alternateBounds" />
          </mxGeometry>
        </mxCell>
        <mxCell id="d76g4JhjwJhJm4ZZSWvx-175" value="" style="shape=tableRow;horizontal=0;startSize=0;swimlaneHead=0;swimlaneBody=0;strokeColor=inherit;top=0;left=0;bottom=0;right=0;collapsible=0;dropTarget=0;fillColor=none;points=[[0,0.5],[1,0.5]];portConstraint=eastwest;fontSize=12;dashed=1;pointerEvents=1;opacity=50;align=center;verticalAlign=middle;fontFamily=Helvetica;fontColor=default;fontStyle=0;" vertex="1" parent="d76g4JhjwJhJm4ZZSWvx-171">
          <mxGeometry y="35" width="490" height="34" as="geometry" />
        </mxCell>
        <mxCell id="d76g4JhjwJhJm4ZZSWvx-176" value="&lt;b&gt;ObjectStore&lt;/b&gt;" style="shape=partialRectangle;html=1;whiteSpace=wrap;connectable=0;strokeColor=inherit;overflow=hidden;fillColor=none;top=0;left=0;bottom=0;right=0;pointerEvents=1;fontSize=12;align=center;dashed=1;opacity=50;verticalAlign=middle;fontFamily=Helvetica;fontColor=default;fontStyle=0;" vertex="1" parent="d76g4JhjwJhJm4ZZSWvx-175">
          <mxGeometry width="110" height="34" as="geometry">
            <mxRectangle width="110" height="34" as="alternateBounds" />
          </mxGeometry>
        </mxCell>
        <mxCell id="d76g4JhjwJhJm4ZZSWvx-177" value="{name:objectStore_0,&lt;span style=&quot;text-align: left;&quot;&gt;keypath: &#39;jDNqUydS&#39;, autoIncrement: false}&lt;/span&gt;" style="shape=partialRectangle;html=1;whiteSpace=wrap;connectable=0;strokeColor=inherit;overflow=hidden;fillColor=none;top=0;left=0;bottom=0;right=0;pointerEvents=1;fontSize=13;align=center;dashed=1;opacity=50;verticalAlign=middle;fontFamily=Helvetica;fontColor=default;fontStyle=0;" vertex="1" parent="d76g4JhjwJhJm4ZZSWvx-175">
          <mxGeometry x="110" width="380" height="34" as="geometry">
            <mxRectangle width="380" height="34" as="alternateBounds" />
          </mxGeometry>
        </mxCell>
        <mxCell id="d76g4JhjwJhJm4ZZSWvx-178" style="shape=tableRow;horizontal=0;startSize=0;swimlaneHead=0;swimlaneBody=0;strokeColor=inherit;top=0;left=0;bottom=0;right=0;collapsible=0;dropTarget=0;fillColor=none;points=[[0,0.5],[1,0.5]];portConstraint=eastwest;fontSize=12;dashed=1;pointerEvents=1;opacity=50;align=center;verticalAlign=middle;fontFamily=Helvetica;fontColor=default;fontStyle=0;" vertex="1" parent="d76g4JhjwJhJm4ZZSWvx-171">
          <mxGeometry y="69" width="490" height="37" as="geometry" />
        </mxCell>
        <mxCell id="d76g4JhjwJhJm4ZZSWvx-179" value="&lt;b&gt;Index&lt;/b&gt;" style="shape=partialRectangle;html=1;whiteSpace=wrap;connectable=0;strokeColor=inherit;overflow=hidden;fillColor=none;top=0;left=0;bottom=0;right=0;pointerEvents=1;fontSize=12;align=center;dashed=1;opacity=50;verticalAlign=middle;fontFamily=Helvetica;fontColor=default;fontStyle=0;" vertex="1" parent="d76g4JhjwJhJm4ZZSWvx-178">
          <mxGeometry width="110" height="37" as="geometry">
            <mxRectangle width="110" height="37" as="alternateBounds" />
          </mxGeometry>
        </mxCell>
        <mxCell id="d76g4JhjwJhJm4ZZSWvx-180" value="{name:index_0,&lt;span style=&quot;text-align: left;&quot;&gt;keypath: &#39;test&#39;}&lt;/span&gt;" style="shape=partialRectangle;html=1;whiteSpace=wrap;connectable=0;strokeColor=inherit;overflow=hidden;fillColor=none;top=0;left=0;bottom=0;right=0;pointerEvents=1;fontSize=13;align=center;dashed=1;opacity=50;verticalAlign=middle;fontFamily=Helvetica;fontColor=default;fontStyle=0;" vertex="1" parent="d76g4JhjwJhJm4ZZSWvx-178">
          <mxGeometry x="110" width="380" height="37" as="geometry">
            <mxRectangle width="380" height="37" as="alternateBounds" />
          </mxGeometry>
        </mxCell>
        <mxCell id="d76g4JhjwJhJm4ZZSWvx-203" style="edgeStyle=orthogonalEdgeStyle;rounded=0;orthogonalLoop=1;jettySize=auto;html=1;entryX=-0.003;entryY=0.613;entryDx=0;entryDy=0;entryPerimeter=0;" edge="1" parent="1" source="d76g4JhjwJhJm4ZZSWvx-101" target="d76g4JhjwJhJm4ZZSWvx-199">
          <mxGeometry relative="1" as="geometry" />
        </mxCell>
      </root>
    </mxGraphModel>
  </diagram>
</mxfile>
